<svg id="Layer_1" xmlns="http://www.w3.org/2000/svg" viewBox="0 0 841.9 228.6"><style>.st0{fill:#eeeded}.st1{fill:#1681b6}</style><path class="st0" d="M495.3 196.9c-3.9 0-7.5-.4-10.8-1.1-3.5-.8-6.5-2.4-8.9-4.5-2.4-2.2-4.2-5.1-5.3-8.7-1.1-3.4-1.4-7.6-.9-12.6.3-2.9.8-5.9 1.7-9.1.8-3 1.7-6 2.5-8.8l19.9-73.3c2.1-8 3.8-14.9 5.1-20.6 1.3-5.7 2.2-10.8 2.7-15.3l.3-4c.1-.9.1-2.1.1-3.6v-2.4l2.4-.4c1.7-.3 3.7-.5 6.1-.7 2.3-.1 4.3-.2 5.9-.2 1.5 0 3.2.1 5 .2 1.9.2 3.6.4 5.3.7l2.1.4.3 2.1c.2 1.5.2 3 .1 4.5l-.4 4.1c-.1 1.7-.4 3.6-.9 6-.4 2.2-.9 4.6-1.4 7-.5 2.5-1.1 5.1-1.8 7.6-.7 2.6-1.3 5-1.9 7.3L497.9 162c-.6 2.2-1 4-1.1 5.3-.2 2.3.1 3.5.3 4.2.3.8.7 1.4 1.1 1.7.6.4 1.2.6 1.9.7 1.1.1 2.1.2 3.2.2s2.5-.1 3.9-.4c1.7-.3 3-.6 4.1-.8l2.8-.7.7 2.8c1 4 1.3 8.8.8 14.3-.1.7-.2 1.4-.3 2-.1.4-.1.7-.2 1l-.2 1.9-1.8.6c-2.4.8-5.2 1.4-8.5 1.7-3.1.3-6.2.4-9.3.4zm49.8-.8c-1.6 0-3.3 0-5-.1-1.8-.1-3.6-.3-5.3-.6l-3.1-.6 24.3-84.4h-12.7l.3-3.1c.3-3 .7-5.9 1.3-8.7.6-2.9 1.7-6 3.2-9.2l.8-1.7h39.9L558.4 195l-1.8.3c-1.7.3-3.7.5-5.9.6-2.1.2-4 .2-5.6.2zm81.4 0c-1.6 0-3.5 0-5.8-.1s-4.4-.3-6.1-.6l-2.2-.4-10.5-115 2.7-.4c1.8-.3 3.8-.5 5.8-.7 2-.1 4-.2 5.9-.2 2.2 0 4.3.1 6.3.2s3.9.4 5.7.7l2.3.4 4.3 81.1 27.7-47.3c3.8-6.6 7-12.7 9.4-18.1 2.4-5.2 3.7-9.3 4.1-12.2l.3-3.6 2.3-.3c2-.3 4-.5 6.1-.7 2.1-.1 4.2-.2 6.2-.2 2.2 0 4.4.1 6.5.2 2.1.1 4.1.4 5.9.7l2.6.4-.3 3.7c-.2 2.5-.9 5.2-1.9 7.9-1 2.7-2.7 6-5.2 10.2-9.4 15.5-19.2 31-29.1 46.3-9.7 15-19.6 30.4-29.4 45.8l-.7 1.2-1.4.2c-4 .5-7.9.8-11.5.8zm119.3 2c-8.8 0-16.2-1.2-22.1-3.5-6-2.4-10.9-5.8-14.5-10.1s-6.1-9.4-7.3-15.2c-1.2-5.6-1.6-11.8-1-18.4.8-9 3.1-18 6.9-26.8 3.8-8.7 8.9-16.7 15.2-23.6 6.3-6.9 13.7-12.6 22-16.9 8.4-4.3 17.7-6.5 27.5-6.5 10.1 0 18.1 2.6 23.8 7.7 5.8 5.3 8.3 12.3 7.6 21-.6 6.8-2.8 12.8-6.6 17.9-3.7 4.9-8.6 9.2-14.7 12.7-5.9 3.4-12.8 6.2-20.6 8.4-7.6 2.2-16 3.9-25 5.2l-8.9 1.3c0 7.6 1.6 13.5 4.8 17.3 3.4 4.1 9.4 6.2 17.7 6.2 5.5 0 10.8-.7 15.8-1.9 5.2-1.3 9.9-2.8 14.1-4.3l2.4-.9 1.2 2.3c1.3 2.5 2.1 5.4 2.4 8.7.3 3.2.4 6.4.1 9.6l-.1 1.7-1.5.7c-2.4 1.1-5.2 2-8.5 2.9-3.2.9-6.6 1.7-10.1 2.3s-7 1.2-10.6 1.5c-3.8.4-7.1.7-10 .7zm21.5-98.6c-4.1 0-8 .9-11.6 2.8-3.8 1.9-7.3 4.5-10.4 7.6-3.2 3.2-6 6.9-8.4 11-1.6 2.7-2.9 5.4-4.1 8.2l7-1.2c7.2-1.3 13.3-2.7 18.1-4.3 4.7-1.6 8.5-3.3 11.3-5.1 2.6-1.7 4.5-3.4 5.6-5.2s1.7-3.7 1.9-5.8c.2-2.4-.4-4.3-1.9-5.7-1.5-1.5-4-2.3-7.5-2.3zM358 130.6l29.8 46.2 28.4-45.2-41.3-65.3h-55.7l38.8 64.3zm44.9-64.3l27.8 44.5 27.8-44.5zm0 130.3l27.8-44.2 27.7 44.2zm-15.1-19.8l-29.3-45.4-.5.9-38.8 64.3h55.7m-198.6-.3c-1.6 0-3.3-.1-5.2-.2-1.9-.1-3.7-.4-5.2-.7l-2.2-.4 17.2-64.1c2.4-9.1 2.9-15.9 1.4-20.3-1.3-3.9-4.7-5.7-10.4-5.7-6.6 0-12.4 2.3-17.8 7.2-5.4 4.8-9.4 12.1-12 21.6l-16.5 61.6-1.3.2c-1.7.3-3.5.5-5.5.6s-3.8.2-5.3.2c-1.6 0-3.3-.1-5.2-.2-1.9-.1-3.6-.4-5.2-.7l-2.2-.4 17.6-65.6c2.4-8.8 2.9-15.5 1.5-19.7-.8-2.4-2.6-5.5-9.4-5.5-3.2 0-6.4.7-9.5 2.1-3.2 1.4-6.3 3.6-9.2 6.4-2.9 2.9-5.7 6.6-8.1 11-2.5 4.5-4.5 9.7-6.1 15.6l-14.9 55.8-1.3.2c-1.7.3-3.5.5-5.5.6s-3.8.2-5.3.2c-1.6 0-3.3-.1-5.3-.2s-3.8-.4-5.3-.7l-2.2-.4 29.4-110 1.3-.2c1.6-.3 3.3-.5 4.8-.6 1.6-.1 3.2-.2 4.7-.2 1.6 0 3.1.1 4.4.2 1.3.1 2.8.4 4.3.6l1.8.3-.1 1.9c-.1 2.1-.5 4.9-1 8.4-.1.4-.1.7-.2 1.1.5-.5 1-1 1.6-1.5 2.6-2.4 5.5-4.5 8.6-6.4 3.2-1.9 6.7-3.4 10.5-4.6s7.9-1.8 12.1-1.8c8.8 0 15.3 1.9 19.3 5.7 3 2.9 5.2 6.6 6.3 11.2 1.3-1.4 2.8-2.7 4.3-4.1 2.7-2.4 5.7-4.6 8.7-6.5 3.1-1.9 6.5-3.4 10.1-4.6 3.7-1.2 7.7-1.8 11.9-1.8 13.1 0 21.8 3.9 26 11.5 4 7.4 4.1 18.3.4 32.3L188.5 195l-1.3.2c-1.7.3-3.5.5-5.6.6-1.9.3-3.7.5-5.3.5zm78.6 1.6c-6.9 0-13.1-.6-18.4-1.9-5.5-1.3-9.9-3.5-13.2-6.5-3.4-3.1-5.6-7-6.6-11.7-1-4.6-.6-10.2 1.1-16.6 1.7-6.2 4.4-11.8 8.2-16.5s8.3-8.6 13.4-11.7c5.1-3.1 10.7-5.4 16.7-6.9 5.9-1.5 12-2.2 18.1-2.2 4.5 0 8.2.1 11 .3 2 .1 3.7.3 5.3.5l.6-2.2c2-7.3 1.6-12.4-1.1-15-2.9-2.8-8-4.2-15.3-4.2-4.7 0-9.3.4-13.6 1.1-4.3.7-8.7 1.7-12.9 3l-2 .6-.6-2c-1.5-4.9-1.4-10.8.4-17.6l.3-1.1 1.1-.3c5.2-1.5 10.9-2.8 16.8-3.6 6-.8 11.7-1.3 17-1.3 14.4 0 24.7 3.4 30.6 10.2 6 6.8 7 17.7 3.2 32.2l-18.2 68-1.3.3c-5.1 1.1-11.4 2.3-18.7 3.4s-14.7 1.7-21.9 1.7zm17.1-53.8c-8.2 0-14.8 1.5-19.8 4.5-4.9 2.9-8.1 7.3-9.7 13.3-1 3.7-1.1 6.6-.4 8.5.7 1.9 1.9 3.4 3.4 4.4 1.7 1.1 3.7 1.7 6.1 2 2.6.3 5.1.4 7.6.4 3.1 0 6.4-.2 9.8-.5 2.9-.3 5.5-.7 8-1.2l8.1-30.3c-1.5-.2-3.3-.3-5.2-.5-3.2-.4-5.8-.6-7.9-.6zM75.3 45.8c1.4-.3 3.2-.5 5.6-.5 2.8 0 4.8.6 6.1 1.8 1.2 1.1 1.8 2.8 1.6 4.9-.2 2.1-1 3.8-2.2 5-1.7 1.6-4.1 2.4-6.7 2.4-.6 0-1.2 0-1.7-.1l-.7 8.4h-3.8l1.8-21.9zm2.9 10.3c.4.1.9.1 1.6.1 2.8 0 4.6-1.5 4.9-4.1.2-2.3-1.1-3.8-3.8-3.8-.9 0-1.6.1-2 .2l-.7 7.6zm24.6 7.7c-.1 1.4-.2 2.8-.1 3.8h-3.5l-.1-1.7H99c-1 1.2-2.6 2.1-4.5 2.1-3 0-4.5-2.2-4.3-4.8.4-4 4.1-6 9.3-6v-.3c.1-1.2-.2-2.8-2.7-2.8-1.4 0-2.9.5-4 1.1l-.5-2.5c1.1-.7 3.1-1.3 5.5-1.3 4.8 0 5.9 3.1 5.6 6.6l-.6 5.8zm-3.4-4.1c-2.4 0-5.1.5-5.3 3.1-.1 1.6.8 2.3 1.9 2.3 1.4 0 2.5-.9 3-2.1.1-.3.2-.6.2-.9l.2-2.4zm8.4 7.9l1.4-16h3.9l-1.4 16h-3.9zm5.9-20.4c-.1 1.2-1 2.1-2.4 2.1-1.2 0-2-.9-1.9-2.1.1-1.2 1.1-2.1 2.4-2.1 1.2 0 2 .9 1.9 2.1zm4.3 9.1c.2-1.8.2-3.3.3-4.7h3.4v2.3h.1c.8-1.2 2.6-2.6 5-2.6 2.7 0 5 1.9 4.6 6.5l-.9 9.8h-3.9l.8-9.3c.2-2.1-.4-3.8-2.4-3.8-1.4 0-2.5 1-3 2.2-.2.3-.3.9-.3 1.3l-.8 9.5H117l1-11.2zm21.2 4.4c-.2 3.1 1.8 4.3 4.1 4.3 1.7 0 2.9-.3 4-.7l.3 2.7c-1.3.6-3.1 1-5.2 1-4.9 0-7.4-3.2-6.9-8 .4-4.7 3.4-8.6 8-8.6s6 3.9 5.7 7.7c-.1.8-.2 1.4-.3 1.7h-9.7v-.1zm6.5-2.7c.2-1.8-.3-3.9-2.6-3.9-2.2 0-3.3 2.2-3.6 3.9h6.2zm9.2-13.5h3.9l-2 23.1h-3.9l2-23.1zm30.5 0l-1.6 18.7c-.1 1.5-.2 3.3-.3 4.4h-3.4v-2.3h-.1c-1 1.6-2.8 2.7-4.9 2.7-3.6 0-6-3.3-5.5-8.1.5-5.5 3.8-8.5 7.2-8.5 1.9 0 3.2.8 3.8 2h.1l.8-8.8 3.9-.1zm-5.1 13.7c0-.3.1-.7 0-1.1-.2-1.5-1.2-2.7-2.8-2.7-2.4 0-3.8 2.4-4 5.3-.3 3 .8 5.1 3 5.1 1.4 0 2.7-.9 3.2-2.6.1-.4.2-.7.2-1.1l.4-2.9zm11.9 2.5c-.2 3.1 1.8 4.3 4.1 4.3 1.7 0 2.9-.3 4-.7l.3 2.7c-1.3.6-3.1 1-5.2 1-4.9 0-7.4-3.2-6.9-8 .4-4.7 3.4-8.6 8-8.6s6 3.9 5.7 7.7c-.1.8-.2 1.4-.3 1.7h-9.7v-.1zm6.4-2.7c.2-1.8-.3-3.9-2.6-3.9-2.2 0-3.3 2.2-3.6 3.9h6.2zm17-12.5h3.9l-1.7 18.9h8.1l-.3 3.3h-12l2-22.2zm26 18.3c-.1 1.4-.2 2.8-.1 3.8H238l-.1-1.7h-.1c-1 1.2-2.6 2.1-4.5 2.1-3 0-4.5-2.2-4.3-4.8.4-4 4.1-6 9.3-6v-.3c.1-1.2-.2-2.8-2.7-2.8-1.4 0-2.9.5-4 1.1l-.5-2.5c1.1-.7 3.1-1.3 5.5-1.3 4.8 0 5.9 3.1 5.6 6.6l-.6 5.8zm-3.4-4.1c-2.4 0-5.1.5-5.3 3.1-.1 1.6.8 2.3 1.9 2.3 1.4 0 2.5-.9 3-2.1.1-.3.2-.6.2-.9l.2-2.4zm9.4-3.4c.2-1.8.2-3.3.3-4.7h3.4v2.3h.1c.8-1.2 2.6-2.6 5-2.6 2.7 0 5 1.9 4.6 6.5l-.9 9.8h-3.9l.8-9.3c.2-2.1-.4-3.8-2.4-3.8-1.4 0-2.5 1-3 2.2-.2.3-.3.9-.3 1.3l-.8 9.5h-3.9l1-11.2zm28.5 11c-.8.3-2.3.7-4 .7-4.6 0-7.4-3.1-6.9-8.1.4-4.8 3.8-8.4 9-8.4 1.3 0 2.6.3 3.4.7l-.9 3c-.5-.3-1.4-.6-2.6-.6-2.9 0-4.7 2.3-4.9 5.3-.3 3.3 1.4 5.2 4 5.2 1.2 0 2.1-.2 2.8-.6l.1 2.8zm7.2-6.6c-.2 3.1 1.8 4.3 4.1 4.3 1.7 0 2.9-.3 4-.7l.3 2.7c-1.3.6-3.1 1-5.2 1-4.9 0-7.4-3.2-6.9-8 .4-4.7 3.4-8.6 8-8.6s6 3.9 5.7 7.7c-.1.8-.2 1.4-.3 1.7h-9.7v-.1zm6.5-2.7c.2-1.8-.3-3.9-2.6-3.9-2.2 0-3.3 2.2-3.6 3.9h6.2zm7.2 6c.8.5 2.2 1.1 3.6 1.1 1.6 0 2.5-.7 2.6-1.8.1-1.1-.4-1.6-2.2-2.4-2.8-1.2-3.8-2.8-3.6-4.6.2-2.8 2.7-4.9 6.1-4.9 1.6 0 3 .4 3.8.9l-1 2.8c-.6-.4-1.7-.9-2.9-.9-1.4 0-2.2.7-2.2 1.7-.1 1 .5 1.4 2.3 2.3 2.6 1.1 3.7 2.6 3.5 4.9-.3 3-2.7 5-6.6 5-1.7 0-3.3-.4-4.3-1.1l.9-3z"/><path class="st1" d="M581.7 61.4c.3.3.9.4 1.8.4 1.3 0 2.6-.4 3.7-1.2 1.1-.8 2.1-1.8 2.9-3.1.8-1.3 1.5-2.7 2-4.2s.8-3.1.9-4.5c.4-4.2-.6-7.4-3-9.6-2.3-2.2-5.8-3.3-10.4-3.3-3.6 0-6.8.6-9.6 1.8-2.9 1.2-5.4 2.8-7.4 4.9-2.1 2-3.7 4.4-5 7.1-1.2 2.7-2 5.4-2.2 8.3-.2 2.6 0 4.8.6 6.7.6 1.8 1.5 3.4 2.8 4.5 1.2 1.2 2.7 2 4.5 2.6 1.7.5 3.6.8 5.7.8 1.9 0 3.6-.1 5.3-.4 1.6-.2 3.1-.6 4.4-1.1.3.8.5 1.6.7 2.5.2.9.4 1.7.5 2.5-.7.3-1.5.6-2.4.9s-1.9.5-3 .7-2.2.3-3.4.4c-1.2.1-2.4.1-3.5.1-2.8 0-5.4-.4-7.8-1.2-2.4-.8-4.5-2-6.3-3.7-1.7-1.7-3-3.7-3.9-6.2s-1.2-5.5-.9-8.9c.3-3.2 1.2-6.5 2.6-9.8 1.5-3.3 3.5-6.3 6.2-8.9 2.7-2.7 5.9-4.8 9.8-6.5 3.9-1.7 8.4-2.5 13.6-2.5 2.8 0 5.3.4 7.7 1.1 2.4.7 4.4 1.9 6.1 3.4 1.7 1.5 3 3.4 3.8 5.7.9 2.3 1.2 5 .9 8.1-.2 2.2-.8 4.5-1.7 6.7s-2.1 4.2-3.6 5.9-3.2 3.2-5.2 4.2c-2 1.1-4.2 1.7-6.5 1.7-2.6 0-4.6-.7-5.9-2.1-1.1.5-2.3 1-3.5 1.4-1.2.4-2.8.6-4.6.6-1.2 0-2.2-.2-3.2-.5s-1.8-.9-2.5-1.6-1.2-1.7-1.6-2.8c-.4-1.1-.5-2.5-.3-4 .2-2.5.8-4.7 1.8-6.8 1-2 2.3-3.8 3.8-5.3s3.3-2.6 5.2-3.5c1.9-.8 4-1.3 6.1-1.3 1.6 0 3.2.1 4.8.4 1.6.2 3 .6 4.3 1.1l-5.1 18.5zm-3-13.8c-.4-.1-.8-.2-1.1-.2s-.7-.1-1.1-.1c-1.2 0-2.3.3-3.2.8-1 .5-1.8 1.3-2.6 2.1-.7.9-1.3 1.9-1.8 3.1-.4 1.2-.7 2.4-.8 3.7-.1 1.6.1 2.8.8 3.5.6.7 1.5 1.1 2.7 1.1.7 0 1.4-.1 1.9-.2s1.1-.3 1.8-.4l3.4-13.4z"/></svg>